<?xml version="1.0" encoding="UTF-8"?>
<svg id="_Слой_1" data-name="Слой_1" xmlns="http://www.w3.org/2000/svg" version="1.1" viewBox="0 0 672 480">
  <!-- Generator: Adobe Illustrator 29.6.0, SVG Export Plug-In . SVG Version: 2.1.1 Build 207)  -->
  <defs>
    <style>
      .st0 {
        fill: #65e52a;
      }
    </style>
  </defs>
  <path class="st0" d="M96,320c-.25-42.65.18-85.35,0-128h30.5c.11,0,1.5-1.39,1.5-1.5v-62.5h30.5c.11,0,1.5-1.39,1.5-1.5v-30.5h62.5c.11,0,1.5-1.39,1.5-1.5v-30.5h64v30.5c0,.11,1.39,1.5,1.5,1.5h29c.11,0,1.5-1.39,1.5-1.5v-30.5h96v30.5c0,.11,1.39,1.5,1.5,1.5h62.5c.04,10.65-.05,21.35,0,32-8.64.02-20.39-1.01-28.55-.05-1.01.12-3.45.45-3.45,1.55v30.5h-30.5c-.11,0-1.5,1.39-1.5,1.5v29c0,.11,1.39,1.5,1.5,1.5h30.5v30.5c0,.11,1.39,1.5,1.5,1.5h29c.11,0,1.5-1.39,1.5-1.5v-30.5h30.5c1.1,0,1.43-2.44,1.55-3.45.95-8.16-.07-19.91-.05-28.55,10.65.05,21.35-.04,32,0v62.5c0,.11,1.39,1.5,1.5,1.5h30.5v94.5c0,.11,1.39,1.5,1.5,1.5h30.5v32c-10.65-.02-21.35.03-32,0-.02-8.64,1.01-20.39.05-28.55-.12-1.01-.45-3.45-1.55-3.45h-29c-.11,0-1.5,1.39-1.5,1.5v29c0,1.1,2.44,1.43,3.45,1.55,8.16.95,19.91-.07,28.55-.05.01,4.27,1.14,30.87,0,32s-27.71-.01-32,0c-.02-8.64,1.01-20.39.05-28.55-.12-1.01-.45-3.45-1.55-3.45h-61c-.11,0-1.5,1.39-1.5,1.5v29c0,1.1,2.44,1.43,3.45,1.55,17.03,1.99,42.54-.01,60.55-.05.03,10.65-.02,21.35,0,32h-64v-30.5c0-.11-1.39-1.5-1.5-1.5h-253c-.11,0-1.5,1.39-1.5,1.5v29c0,.11,1.39,1.5,1.5,1.5h222.5v32h-126.5c-.11,0-1.5,1.39-1.5,1.5v30.5h-192v-30.5c0-.11-1.39-1.5-1.5-1.5H32v-30.5c0-.11-1.39-1.5-1.5-1.5H0v-32h30.5c.11,0,1.5-1.39,1.5-1.5v-30.5h30.5c.11,0,1.5-1.39,1.5-1.5v-30.5c10.65.02,21.35-.03,32,0,.05,8.68-1.01,20.35-.05,28.55.12,1.01.45,3.45,1.55,3.45h29c.11,0,1.5-1.39,1.5-1.5v-29c0-1.1-2.44-1.43-3.45-1.55-8.16-.95-19.91.07-28.55.05ZM257.5,96c-.33.51-1.5,1.23-1.5,1.5v29c0,.11,1.39,1.5,1.5,1.5h29c.11,0,1.5-1.39,1.5-1.5v-29c0-.11-1.39-1.5-1.5-1.5h-29ZM256,160v-30.5c0-.11-1.39-1.5-1.5-1.5h-29c-.11,0-1.5,1.39-1.5,1.5v29c0,.11,1.39,1.5,1.5,1.5h30.5ZM193.5,160c-.33.51-1.5,1.23-1.5,1.5v61c0,.11,1.39,1.5,1.5,1.5h29c.11,0,1.5-1.39,1.5-1.5v-61c0-.11-1.39-1.5-1.5-1.5h-29ZM192,352v-126.5c0-.11-1.39-1.5-1.5-1.5h-29c-.11,0-1.5,1.39-1.5,1.5v126.5h-30.5c-.11,0-1.5,1.39-1.5,1.5v29c0,.11,1.39,1.5,1.5,1.5h93c.11,0,1.5-1.39,1.5-1.5v-30.5h-32ZM403,239h-26v26h26v-26ZM376,266h-26v26h26v-26ZM430,266h-27c-.38,1.09,1,2.21,1,2.5v23.5h26v-26ZM403,293h-26v27h26v-27Z"/>
  <path class="st0" d="M480,128c4.27-.01,30.87-1.14,32,0,1.13,1.14,0,27.74,0,32-4.31-.02-30.87,1.14-32,0-1.13-1.14.02-27.7,0-32Z"/>
  <path class="st0" d="M640,96v30.5c0,.11,1.39,1.5,1.5,1.5h30.5v32h-30.5c-.11,0-1.5,1.39-1.5,1.5v30.5h-32v-30.5c0-.11-1.39-1.5-1.5-1.5h-30.5v-32h30.5c.11,0,1.5-1.39,1.5-1.5v-30.5h32ZM609.5,128c-.33.51-1.5,1.23-1.5,1.5v29c0,.11,1.39,1.5,1.5,1.5h29c.11,0,1.5-1.39,1.5-1.5v-29c0-.11-1.39-1.5-1.5-1.5h-29Z"/>
  <path class="st0" d="M512,64c-10.65.03-21.35-.02-32,0v-32h30.5c.11,0,1.5-1.39,1.5-1.5V0h32v30.5c0,.11,1.39,1.5,1.5,1.5h30.5v32h-30.5c-.11,0-1.5,1.39-1.5,1.5v30.5h-32c.02-10.65-.03-21.35,0-32,8.64-.02,20.39,1.01,28.55.05,1.01-.12,3.45-.45,3.45-1.55v-29c0-.11-1.39-1.5-1.5-1.5h-29c-1.1,0-1.43,2.44-1.55,3.45-.95,8.16.07,19.91.05,28.55Z"/>
</svg>