<?xml version="1.0" encoding="UTF-8"?>
<svg id="_Слой_1" data-name="Слой_1" xmlns="http://www.w3.org/2000/svg" version="1.1" viewBox="0 0 735.96 756.99">
  <!-- Generator: Adobe Illustrator 29.6.0, SVG Export Plug-In . SVG Version: 2.1.1 Build 207)  -->
  <defs>
    <style>
      .st0 {
        fill: #65e52a;
      }
    </style>
  </defs>
  <path class="st0" d="M70.97,144h11.01v-11.01s10,0,10,0v-10s10,0,10,0v-10s10,0,10,0v-10s11,0,11,0v-11l9.03.57.97-10.57h9.01l.97,10.57,9.02-.57,1.02,10.99h10v10.01s10,0,10,0v10s11,0,11,0v-10.01h20v20h10.01v11l10.54-.06-.53,19.05h-20l-.94,10.56-10.07.44,1.01,10h-11.01v10.01s-10,0-10,0v10s-10,0-10,0v11s-9.99-1-9.99-1v11h-11.01v20l-9.56.94-.43,9.07h-10.01v31h-10v21h-11v41h-10v82h10v41h11v21h10v30h10.01l.43,10.06,10.56.95c.49.36-1,1.28-1,1.49v18.5h11.01v10.01s10,0,10,0v11s10,0,10,0v10s10,0,10,0v10s11,0,11,0v10s10,0,10,0v10.99h20v10h21v10h20v10h21v11h41v10h82v-10h41v-11h20v21h10v20h-10.01v10h-20v10h-31v41h-10.01v10h-82v-10.01h-10v-41h-31l1-10h-21v-10h-31v-11h-20v-10.01h-11v-9.99h-20v-10.01h-11.01v10.01h-10s0,10,0,10h-10s0,10,0,10l-10.06.43-.93,10.57h-9.01l-.43-10.07-9.57-.93v-10.01h-11s0-10,0-10h-10s0-10,0-10h-10s-.43-10.06-.43-10.06l-9.57-.93v-10.01h-11s0-9,0-9l10.57-.93.43-10.07h10.01v-10s10,0,10,0v-10s10,0,10,0v-11h-10.01v-10s-10,0-10,0v-20.99h-10v-20l-10.06-.44-.93-10.57-7.96.59-2.04-1.09v-39.5h-10v-31H10v-10.01H0v-82h10.01v-10h41v-31h10v-41h10v-20l10.56-.94.43-19.07c.71-.71,8.65,1.41,10-1.49v-19.5h10v-21h-10.01l-.97-10.56-9.03.57-.43-10.07-10.56-.94v-19l-.03.04Z"/>
  <path class="st0" d="M408.97,0v10.01c.7.71,8.64-1.41,10,1.49v50.5h31c-2.14,3.4.08,6.4,0,10h20v10h31v10h17.5c.62,0,1.51.79,2.49,0,.48,3.58-1.35,8.37,1.51,11.01h19.5l-.56,9.06,10.57.93v10.01h11v-10.01h10s0-10,0-10l10.05-.46.95-10.52h9.99v-10.02s9,0,9,0v10.01h10s.43,10.06.43,10.06l10.57.93v10.01h10s0,10,0,10h10s0,10,0,10h10s.43,10.06.43,10.06l10.56.94v19l-10.06.44-.95,10.56c-2.02-1.14-8.26-1.91-9.55-.06l-.43,10.07h-10.01v20.99h10v21h10v18.5c2.64,2.85,7.43,1.05,11,1.5v20h10v41h10v31h41v10.01h10v82h-10.01v10h-41v31h-10v40h-10.01v11.01s-11,0-11,0v19.99h-9.01v-10.01s-10,0-10,0v-10s-11,0-11,0v-10s-10,0-10,0v-19.99h10v-21h11v-41h10v-82h-10v-41h-11v-21h-10v-31h-10.01c.73-11.41.09-9.77-9.99-9v-21h-11.01v-10.01s-9.56-.93-9.56-.93l-.43-10.07h-10.01v-10s-10,0-10,0v-10s-10,0-10,0v-10s-11,0-11,0v-10.99h-18.5c-.21,0-1.13,1.49-1.49,1l-.95-10.56-10.07-.43v-10.01h-29.99v-10h-21v-11h-41v-10h-82v10h-41v11h-30v-21h-11.01v-10.01s-10,0-10,0v-19.99h31v-10h19.5c2.74-2.38,1.13-6.71,1.5-10h30V10.02h11.01V.02h81l.05-.02Z"/>
  <path class="st0" d="M326.97,471c6.98-.15,14.02.11,21,0v-20h10.01l.05-9.95c9.99-2.6,19.86.64,29.95-.05v10.01h9.99v20c3.57.45,8.36-1.35,11,1.5v131.5h21v-10h20v-10.01h10v40h-19.5c-2.91,1.36-.78,9.3-1.49,10h-30.01c-.78.77,1.5,9.54-1.49,11h-80.5v-11h-30v-10h-31v-10h-21v-10.01h-10.01s0-11,0-11h-19.99l-.94-9.56-10.06-.45,1-10h-11.01v-10s-10,0-10,0l-.93-10.56-9.05.56v-11h-10.01v-18.5c-1.46-2.99-10.22-.71-11.01-1.49v-10.01h-9.99v-21h-10v-20h-10v-41h-11v-82h11v-41h10v-20h10v-21h10.01v-10.01s11,0,11,0v-19.99l9.56-.94.43-10.07,10,1.01v-11.01h10.01s0-10,0-10h11s-1-9.99-1-9.99l10.06-.45.95-10.56c.36-.49,1.28,1,1.49,1h18.5v-11.01h10.01v11.01l9.99-1v20h-10.01v11.01s-9.95.05-9.95.05l-1.05,9.95h-10.01l1.01,9.99h-11.01v10.01s-10,0-10,0l-.05,9.94-9.95,1.05v10.01h-10.99v20h-10.01v11h31v10h-41v20h-10v21h82l.58-10.02h9.43v10.02h42l-1-9.99h11v-10.01s10,0,10,0v-9.99h20v20h10v20h-10.01v10.01c-2.59.44-9.88-1.35-10.86,1.63l.31,39.4,10.56.95v10.01l10.01.57v9.43h-10.02s0,10,0,10h-10s0,10,0,10h-19.99v-10.01h-11l1-10h-134v21h10v20h10v19.5c2.38,2.74,6.71,1.13,10,1.5v20h11.01v10.01s9.56.93,9.56.93l.43,10.07h10.01v10s10,0,10,0v10s11,0,11,0v-10.01h9.99v31h20l1.5,10h19.5v10h20v10h21c.47-44.3-.63-88.7,0-133-3.33.07-6.79-.44-10.06.44l-.93,9.57h-9.01v-20h10.01v-10.01s10.05-.43,10.05-.43l.36-9.61,10.59-.95v-10.01h8.99v20h-10.01v10.01s-10,0-10,0c-.03,3.65.06,7.34,0,10.99v.02Z"/>
  <path class="st0" d="M408.97,348c-6.65-.11-13.35.08-20.01,0v-11.01h-18.49c-.38,0-1.45,1.86-2.38-.62l-.11-9.39h-10.01v-19.99h-10.01l-.93-10.56-9.05.56v-10h10s0-10,0-10h29.49c2.99-1.46.71-10.22,1.49-11.01h10.01v-19.99h10v-31h-10v-31h-10v-20h9.01v10.01s11,0,11,0v-21.01h-10v-20h20v11h41v10h20v10h21v10.01h10.01s0,11,0,11l19.47-.99,1.13,2.03c-2.97,10.42,2.01,9.27,10.39,8.94v10.01h10s0,10,0,10h10s.93,10.58.93,10.58l8.44-.5,1.21,1.95-.15,8.03,9.56.94v20h11.01v10.01s10,0,10,0v20.99h10v20h10v41h11v82h-11v41h-10v20h-19l-.94-9.56-10.06-.44v-30h10v-21h-31v21h10v29.5c0,3.3,8.33-.35,10.06.92l.93,10.59h10.01v10s10,0,10,0v10s10,0,10,0v10s10,0,10,0v9.99h-19v-10.01h-10s-1.01-10.99-1.01-10.99h-10v-10.01h-20v-10h-21v-10.01h-10.01s0-10,0-10h20.01v9.99c2.02-.37,11,2.51,11-.49v-19c-2.64-2.86-7.43-1.03-11-1.51,1.52-9.52,1.36-20.69,1.05-30.54-.09-2.84-1.06-5.36-1.09-7.94-.02-2.12-.04-1.28,1.51-1.52,2.88-.43,6.53.32,9.53,0v-31h-10.01l-.43-10.06-10.56-.94v-20h-10v-51h9v41h53c.27-.73-1-1.2-1-1.5v-19.5h-10v-20h-10v-21h-10v-20h-10.01v-10s-10.89-1.1-10.89-1.1l-.1-9.9c-3.58.45-8.37-1.34-11.01,1.51v60.5h-9v-50.5c-2.64-2.84-7.43-1.05-11.01-1.51v11.01h-10s0,10,0,10h-9.99v-20h10.01v-10.01s10,0,10,0v-20.99h-51v-10h41v-11h-20v-10h-21v-10h-20v-10h-21v10.01l-10.06.43c-1.5,1.05-1.5,9.08,0,10.13l10.06.44v31l39.36-.86,1.5,1.5.14,8.36h-41v72h10v20h-10.01c-.06,6.98.1,14.02,0,21,3.32.06,6.68-.04,10,0v20h-10.01v10.01s-10.06.43-10.06.43l-.93,10.57h-10.01v19.99h-10.01v10.01s-10,0-10,0v10.99h-20v-10.01h10.01s0-10,0-10h9.99v-32h-10v-20h-10v-20h9.01v10.01s11,0,11,0v20.99h10.01v10.01s11,0,11,0v-10.01s10,0,10,0v-10s10,0,10,0c.03-3.65-.06-7.34,0-10.99v.02Z"/>
  <path class="st0" d="M531.97,615v-11.01s11.01.02,11.01.02l-.02-10.02,10.02.02-.02-10.02,10.02.02-.02-10.02,10.02.02.43-10.07,9.56-.93v-10.02s11.01.02,11.01.02l-.02-10.02h9.02l-.02,10.02,10.02-.02-.02,10.02h11.01s0,20.99,0,20.99h10.01s-.02,10.01-.02,10.01l10.02-.02-.02,10.02,10.02-.02.43,10.07,10.57.93v9.02l-11.02-.02v10.02s-9.55.93-9.55.93l-.43,10.07-10.02-.02.02,10.02-10.02-.02.02,10.02-11.02-.02v10.02s-9.55.93-9.55.93l-.43,10.07h-9.02l-.93-10.57-10.07-.43.02-10.02-10.02.02.02-10.02-10.02.02.02-10.02h-11.02v10.01s-19.99,0-19.99,0v10h-20v-20h-11v-20h11.01s-.01-10-.01-10h20Z"/>
  <path class="st0" d="M510.97,348v21h10v51h11s-1,10-1,10l-80.06-.44-.94-10.56h-31v-50.01s11.01.02,11.01.02l-.02-10.02,10.02.02v-11.01s70.99,0,70.99,0Z"/>
  <path class="st0" d="M356.97,133v21h11v30h10v31c-3.4-2.14-6.4.08-10,0v20h-11.01v10.01s-9.56.93-9.56.93l-.43,9.07c-6.38-.67-14.33,3.4-20.01-.5v-80.5h-18.5c-.25,0-.59-.81-1-.77l-1.38,1.39-.12,9.38h-19v-19.5l-1.66-1.34-9.36-.73v-8.43h11.02s0-10,0-10h39.49c2.85-2.64,1.05-7.43,1.5-11h29.02Z"/>
  <path class="st0" d="M490.97,604c-.12,17.21-.04,33.99-.99,51h-9.01v-41h-10v-29.5c-2.38-2.74-6.71-1.13-10-1.5v-20h-11v-21h-10v-30h-10v-21h-11l1.01-20.01h-11.01v-20.99h-10v-20h-10v-20h10l-1,10h21c.02,3.32-.03,6.68,0,10,9.76-.16,19.59,0,29.36.14l1.5,1.5c.39,2.78.05,5.59.14,8.36,6.63.13,12.93,1.95,20,0v10h-20c-.08-3.32.11-6.68,0-10-10.31-.2-20.69.14-31.01,0-.02-3.32.04-6.68,0-10.01-3.32.05-6.68-.04-10.01,0v10.01l9.57.93.43,10.07h10.01v29.99h10v21h11c-1.64,10.42.48,20.51-.01,31.01h10.01v19.99h10v21l10-1v31c3.65-.03,7.35.05,11,0,.09-13.65-.07-27.35,0-41.01h10.01v-10s11,0,11,0v-10s10,0,10,0v-10s10,0,10,0l.1-9.89,10.89-1.11-1-9.99h20l.47,10.05c.91,1.59,8.81-2.1,10.28,1.4l.26,18.54h-11.01v10.01s-10,0-10,0v11s-10,0-10,0v10s-11,0-11,0l1,9.99-10.06.45-.95,10.56c-.36.49-1.28-1-1.49-1h-18.5v11.01c-3.32.03-6.68-.05-10,0h.01Z"/>
  <path class="st0" d="M214.97,103h10l-1.01,10h11c-1.14,2.03-1.91,8.27-.06,9.57l10.06.44v21h10.01v10.01s10,0,10,0v10s10,0,10,0v19.99l11,1v30h10v31h10v20h31v10h-20v10.01h-10.01v-10.01h-10s0-10,0-10h-10.99c2.81-10.2-.64-20.65,0-31h-10.01v-30.99h-10v-30h-10.01l-.93-10.56-10.07-.43v-10.01h-9.99v-20h-10.01v-11.01s-10,0-10,0v-18.99l.02-.02Z"/>
  <path class="st0" d="M469.97,287v20h-10.01s.02,10.01.02,10.01l-10.02-.02.02,10.02-11.02-.02v10.01s-8.99,1-8.99,1v-20h10.01s-.01-11-.01-11l9.99,1v-11.01h11.01s-1-9.98-1-9.98h10Z"/>
  <path class="st0" d="M500.97,451v10h20v10h-30v-11h-20v-9h30Z"/>
  <path class="st0" d="M387.97,225v20h-10.01v10.01s-10,0-10,0v-19.01l10.06-.44.95-10.56c2.97,1.5,6.02,1.49,8.99,0h.01Z"/>
  <path class="st0" d="M367.97,256h-20v10h20v-10Z"/>
  <path class="st0" d="M326.97,307c-3.32-.03-6.68.02-10,0v-20h10.01c.17,6.64-.25,13.36,0,20,3.32.03,6.68-.03,10.01,0v10.01l-8.9-.11c-1.13-3.27-.98-6.5-1.11-9.89h-.01Z"/>
  <path class="st0" d="M285.97,267h-10v19h10v-19Z"/>
  <path class="st0" d="M500.97,656h-10v19h10v-19Z"/>
  <path class="st0" d="M346.97,318v20l-9-1v-19h9Z"/>
  <path class="st0" d="M633.97,542.99h-10.01v10.01h10.01v-10.01Z"/>
  <path class="st0" d="M244.97,296.99h-10.01v10.01h10.01v-10.01Z"/>
  <path class="st0" d="M428.98,337.99v10.01l-9.07-.44c-1.83-1.28-.62-7.24-.94-9.57h10.01Z"/>
  <path class="st0" d="M490.98,522.01h-10.01v-10.01l9.07.44c1.83,1.28.62,7.24.94,9.57Z"/>
  <path class="st0" d="M275.97,512l-1.01,9.99-9,.02v-10.02h10.01Z"/>
  <path class="st0" d="M285.98,501.99v9l-9.07.59c-1.83-1.33-.62-7.28-.94-9.59h10.01Z"/>
  <path class="st0" d="M459.98,491.01h-10.01v-9.01c3.37-.09,6.89.64,9.99-.99v10h.02Z"/>
  <path class="st0" d="M233.97,317.01h-9.01v-10.01c2.35.33,8.2-.93,9.57.98l-.56,9.03Z"/>
  <path class="st0" d="M213.98,306.99v10.01h-10c1.63-3.12.9-6.63.99-10h9.01Z"/>
  <path class="st0" d="M274.97,296.99l.56,9.03c-1.37,1.91-7.22.65-9.57.98v-10.01h9.01Z"/>
  <path class="st0" d="M377.97,143.99h-10.01v9.01h10.01v-9.01Z"/>
  <path class="st0" d="M254.97,276.99h-10.01v9.01h10.01v-9.01Z"/>
  <path class="st0" d="M541.97,399.99h-10.01v9.01h10.01v-9.01Z"/>
  <path class="st0" d="M254.97,327.99h-10.01v9.01h10.01v-9.01Z"/>
  <path class="st0" d="M479.97,470.99h-9.01v10.01h9.01v-10.01Z"/>
  <path class="st0" d="M305.97,480.99h-9.01v10.01h9.01v-10.01Z"/>
  <path class="st0" d="M500.97,491.99h-10.01v9.01h10.01v-9.01Z"/>
  <path class="st0" d="M305.97,306.99h-9.01v10.01h9.01v-10.01Z"/>
  <path class="st0" d="M254.97,532.99h-10.01v9.01h10.01v-9.01Z"/>
  <path class="st0" d="M623.97,532.99h-10.01v9.01h10.01v-9.01Z"/>
  <path class="st0" d="M643.97,552.99h-9.01v10.01h9.01v-10.01Z"/>
  <path class="st0" d="M469.92,523.05l.06,8.96h-9.01l-.57-9.05c1.74-2.37,6.95.28,9.52.09Z"/>
  <path class="st0" d="M264.97,318v9.01s-9.01,0-9.01,0l.02-10.01,8.99,1Z"/>
  <path class="st0" d="M295.98,491.99v9.02h-9.01s-1-9-1-9l10.01-.02Z"/>
  <path class="st0" d="M264.97,522.99h-9.01v9.01h9.01v-9.01Z"/>
  <path class="st0" d="M479.97,276.99h-9.01v9.01h9.01v-9.01Z"/>
</svg>