<?xml version="1.0" encoding="UTF-8"?>
<svg id="_Слой_1" data-name="Слой_1" xmlns="http://www.w3.org/2000/svg" version="1.1" viewBox="0 0 558.99 539.58">
  <!-- Generator: Adobe Illustrator 29.6.0, SVG Export Plug-In . SVG Version: 2.1.1 Build 207)  -->
  <defs>
    <style>
      .st0 {
        fill: #65e52a;
      }
    </style>
  </defs>
  <path class="st0" d="M250.41,154.29c.07-10.38-.05-20.81,0-31.2,5.45.9,10.58,1.39,16.01,0v-31.19h13.07l.42-91.9h47.21v15.18l14.33.84v15.18h14.33l-.05,77.52-40.42.89v-14.33h-35.41v15.18h33.72v16.02h27.82v42.15l-61.55.85v-15.18c-9.82.05-19.68-.06-29.5,0-.03,5.05.02,10.13,0,15.18h-15.18v15.18h-13.91c-1.92,1.17-.42,1.81-.42,2.11v24.87l14.34.84.84,15.18h16.86l-.84-16.02h15.18v-26.98h-15.18v-14.33h27.82v13.91c2.72,2.87,7.09.49,10.5.39,11.92-.37,23.99.39,35.87.03v31.19h-13.07c-.28,0-1.28,1.12-2.11.84v18.97c-.74,1.2-1.68,1.16-2.91,1.31-6.37.75-14.16-.64-20.7-.04v21.08h-21.92v17.71h-55.64v-14.75l-1.26-1.26h-28.24v-18.55h-16.02v-14.33h14.33v-26.14h14.33v-15.18h15.18v-15.18h25.71c1.94-1.09.29-2.33.43-3.77.38-4.05,1.41-8,.83-12.25,5.05-.02,10.13.04,15.18,0l.02-.02Z"/>
  <path class="st0" d="M544.65,304.36v15.17h14.34v38.79h-14.34v14.33h-129.83v-26.14h28.66l.85-14.33h-29.51v-27.82h129.83Z"/>
  <path class="st0" d="M524.42,387.82v15.18h14.33v37.94h-14.33v14.33h-124.78v-25.71c0-.26-1.07-.65-.84-1.26h26.14v-14.33h-25.29v-26.14h124.78,0Z"/>
  <path class="st0" d="M220.9,427.45v23.19l1.26,1.26h13.91v13.91l1.26,1.26h29.09v15.18h13.49v56.49h-96.11v-111.29h37.1ZM213.32,504.17h-14.33v19.39h14.33v-19.39ZM243.67,504.17h-13.07l-1.26,1.26v18.13h14.33v-19.39Z"/>
  <path class="st0" d="M529.48,214.15v16.01h15.17l-.83,48.07-13.49.84.83,9.26-100.33.86-.84-32.05h20.66l1.26-1.26v-13.91h-21.92v-27.82h99.49Z"/>
  <path class="st0" d="M311.96,257.14v33.72l-15.18.84v18.55h-16.86v17.71h-22.34l-1.26,1.26v13.91h-50.59v-30.35h-59.86v-52.27h16.02v15.6c.53.82,3.03,1.26,3.79,1.26h27.4v14.33h76.3c3.11-4.06-.79-10.2.42-15.18h17.28l1.26-1.26v-17.28l23.61-.84h.01Z"/>
  <path class="st0" d="M491.54,470.45v13.49l13.49.84v30.35h-13.49v13.49c-.83-.27-1.83.84-2.11.84h-105.81v-22.76h22.34l1.26-1.26v-12.22h-23.61v-22.34l107.92-.42h.01Z"/>
  <path class="st0" d="M69.99,263.89v27.82h-14.33v14.33l14.33.84v15.18h-14.33v18.55h15.18v15.6c-.53.82-3.03,1.26-3.79,1.26H.02v-48.9h36.25v-15.18H.02v-15.18h14.33v-14.33h55.64Z"/>
  <path class="st0" d="M414.82,214.99l.84,75.03-72.51.85v-16.44l-1.26-1.26h-14.75l.84-43h15.18v43h40.47v-43.42l-1.26-1.08c-.34-.02-.63.66-.84.66h-38.36v-14.33h71.66-.01Z"/>
  <path class="st0" d="M397.96,306.04v66.61h-70.82v-13.07l-1.27-1.26h-14.75v-37.1h15.17v35.83l1.27,1.27h37.51v-37.94h-37.93v-14.34h70.82Z"/>
  <path class="st0" d="M383.62,388.67v65.76h-72.5v-13.49h-14.34v-37.1h14.34v36.26h38.78v-37.1h-37.94v-14.33h71.66Z"/>
  <path class="st0" d="M0,410.59h67.44v58.17H0v-58.17h0ZM52.28,425.76h-21.08v18.97l1.26,1.26h18.55l1.26-1.26v-18.97h.01Z"/>
  <path class="st0" d="M131.54,360h49.75l.84,48.06h-16.02v29.51h-19.39v-26.14h-15.18v-51.43ZM166.1,374.33c-6.64-1.29-13.63-1.28-20.23,0v19.39h20.23v-19.39Z"/>
  <path class="st0" d="M310.27,515.97c10.95.08,21.93-.06,32.88,0v-31.19h-32.04v-14.33h57.33v59.86h-58.17c-.02-4.77.02-9.57,0-14.33-4.77-.03-9.57.02-14.33,0v-28.24c0-.62.39-2.7,1.23-2.76l13.11-.19c-.85,4.31.87,9.1.87,13.03,0,5.57-.9,12.05-.87,18.17v-.02Z"/>
  <path class="st0" d="M129.01,263.05l.84,27.82h-30.35v63.23h-14.33l-1.69-91.05h45.53Z"/>
  <path class="st0" d="M85.17,374.33v13.49h15.18v13.07l1.26,1.26h13.91v41.31h-29.51v-10.96l14.33-.84v-27.82h-15.18v-13.91c0-2.51-7.23-.44-8.82-.39-4.6.15-11.76.52-16.1,0-1.23-.14-2.17-.1-2.91-1.31v-13.91h27.84Z"/>
  <path class="st0" d="M50.6,518.5H.01v21.08h50.59v-21.08Z"/>
  <path class="st0" d="M50.6,484.78H.01v21.08h50.59v-21.08Z"/>
  <path class="st0" d="M144.18,435.88v34.57h-13.91l-1.26,1.26v13.07h-15.18v13.49h-19.39v-14.33h18.55v-14.34h16.02v-33.72h15.17Z"/>
  <path class="st0" d="M220.06,375.18v37.1h-23.61l.85-37.1c7.55,1.61,15.05-.75,22.76,0Z"/>
  <path class="st0" d="M37.11,372.65H.01v21.08h37.1v-21.08Z"/>
  <path class="st0" d="M191.39,327.96h-44.68v16.86h44.68v-16.86Z"/>
  <path class="st0" d="M81.79,483.94v39.63c-3.33-1.16-15.75,2.34-17.35.01-.49-.63.49-1.07.49-1.27v-38.36h16.86Z"/>
  <path class="st0" d="M129.85,306.89h-16.02v38.78h16.02v-38.78Z"/>
  <path class="st0" d="M293.41,344.83v25.29h-13.49v13.49h-13.49l.85-14.33h11.8v-24.45h14.33Z"/>
  <path class="st0" d="M169.48,474.66c.42.3-.84,1.09-.84,1.26v14.75h-10.12v10.96h-11.8v11.8h-11.8v-13.49h11.8v-13.49l11.44-.79-.48-11.01h11.8Z"/>
  <path class="st0" d="M131.54,510.07h-37.1v13.49h37.1v-13.49Z"/>
  <path class="st0" d="M264.75,376.86v15.18c-1.08-.46-2.5.84-2.95.84h-27.4v-16.02h30.35Z"/>
  <path class="st0" d="M263.9,408.9v14.33l-29.51.84v-15.18h27.4c.52,0,1.29.68,2.11,0h0Z"/>
  <path class="st0" d="M280.76,426.61v14.33c-8.33,1.47-16.86.64-25.29.84v-14.33l25.29-.84Z"/>
  <path class="st0" d="M157.67,454.43h10.96c-.64,5.55.49,11.05.85,16.44.12,1.76-.02,1.09-1.25,1.27-2.67.39-8.52.58-10.56-1.27v-16.44Z"/>
  <path class="st0" d="M84.32,432.51v11.8h-15.17l.84-11.8h14.33Z"/>
</svg>