<?xml version="1.0" encoding="UTF-8"?>
<svg id="_Слой_1" data-name="Слой_1" xmlns="http://www.w3.org/2000/svg" version="1.1" viewBox="0 0 565.01 523">
  <!-- Generator: Adobe Illustrator 29.6.0, SVG Export Plug-In . SVG Version: 2.1.1 Build 207)  -->
  <defs>
    <style>
      .st0 {
        fill: #65e52a;
      }
    </style>
  </defs>
  <path class="st0" d="M212,252.02v-10.01h10.01v-11h-10.01v-8.42s10.01-.57,10.01-.57v-11.01h-10.01s0-10,0-10h-10s0-10,0-10h-10s0-10,0-10h-9.99v-20h10.01v-10.01s10,0,10,0v-10s10,0,10,0v-10s10,0,10,0v-29.99h-10v-20h-10.01l-.43-10.06-9.56-.94V21.01h10.01v-11c2.02,1.14,8.26,1.91,9.55.06l.43-10.07,10.02.58v9.43h-10.02v20h-10v31h10.01v10.01s10,0,10,0v10s10,0,10,0v19.99h10v40h-10.01v10.01s-10,0-10,0v20.99h18.5c.21,0,1.13-1.5,1.49-1v11h10.01v29h-10.01v10.01s-9.56.93-9.56.93l-.44,10.06h40v20h10.01v10h21v-11l-9.99,1-.98-10.58-9.04.58v-10h95v140l-9.56.94-.43,9.07h-9.01l-.1,9.89-9.9,1.1v10.01H71.01v-171h70v20h10.01v10h21v-11l-10.03.57-.92-10.09-9.06.53v-19.5l-1.5-1.5H61.01v-9h100v20h50l.86,8.54-2.09,1.26c-10.3-3.32-9.03,2.02-8.77,10.21,3.66.03,7.35-.06,11.01,0v10h20v-11c-6.68,1-13.25,1.1-20,1l-.02-.02ZM131,312.02c-3.32.06-6.68-.04-10,0v17h10.01c.06-5.65-.1-11.35,0-17,6.65-.11,13.35.08,20,0v15.5c2.18,2.55,6.3,1.43,9.36,1.36,4.05-1.34-.52-13.13.64-16.86h-9.01v-9.99h-21c-.04,3.32.06,6.68,0,10h0ZM192,312.02c-.06-3.32.04-6.68,0-10h-21v10.01c6.98.08,14.02-.12,21,0,.06,3.32-.06,6.68,0,10-3.33.14-6.78-.49-10.06.44-1.5,1.04-1.5,9.08,0,10.13l10.07.43c-.07,6.32.09,12.69,0,19.01h-21.01c.45,3.57-1.34,8.36,1.51,11h19.5c.04-3.65-.05-7.35,0-11h10v-18.5c-1.36-2.91-9.3-.78-10-1.49-.04-3.32.06-6.68,0-10.01,1.77-.07,9.85.52,10.02-.58v-9.43c-3.34-.04-6.69.06-10.02,0h0ZM263,302.02h-21v10h20v10h-20v11h20v19h-20v11h19.5c3.1-1.66.59-9.81,1.51-11,3.4,2.14,6.4-.08,9.99,0v-18.5c-1-2.84-9.71,1.16-10.01-1v-3.49h10.01v-17h-10.01v-10h.01ZM313,302.02h-21l.98,10.56c6.32-1.82,12.79,2.41,19.01-.56v10h-18.49c-2.28,1.36-2.1,9.5-.57,10.56l19.07.44v19h-30c.44,2.6-1.34,9.89,1.64,10.86l28.42-.3,1.05-9.46,9.89-1.1v-20h-10.01v-9.01l10.02-.57v-10.43h-10.02s0-10,0-10h.01ZM222.01,312.02h-10.01v10.01h10.01v-10.01ZM131,352.02c-.09-6.32.06-12.69,0-19.01h-10.01v19.01c3.32.04,6.68-.06,10,0,.05,3.65-.04,7.35,0,11h19.5c3.25,0-.04-8.76.92-10.05l10.58-.95v-19h-11v19c-6.65-.08-13.35.11-20,0h.01ZM222.01,333.02h-10.01v10.01h10.01v-10.01Z"/>
  <path class="st0" d="M439,413.02c.06,3.32-.02,6.68,0,10,3.3.1,7.7-1.04,10,1.5v18.5h-10.01c-.03-6.65.05-13.35,0-20-3.32-.1-6.68.08-10.01,0-.04-3.32.06-6.68,0-10.01,3.32.06,6.68-.06,10,0h.02Z"/>
  <path class="st0" d="M429,403.02c.05,3.32-.06,6.68,0,10-1.75-.03-9.86.49-10.02-.58v-9.43h10.02Z"/>
  <path class="st0" d="M429,403.02c-.06-3.66.04-7.35,0-11.01h-10.01c-.29-1.97,1.05-9.31-1.45-9.74l-8.55.74v9l-31,1v10.01h-8.99v39.5c0,2.27,6.73,1.46,8.42.61,3.24.76,1.12,16.53.53,19.83l-8.95.05v-20h-10v-50h10.01v-10h30v-10.01h10.01s0-10,0-10h19.99v-10h18.5c2.86-2.64,1.03-7.43,1.51-11l10,1v-10.01l19-.99v-9.01l25.36-.92,1.66,2.41c-3.16,8.89,1.02,10.23,8.96,7.51l.95,10.56,10.07.43v10.01h10s0,10,0,10h10s0,10,0,10h9.99v30h10v30h-10.01v10.01s-10,0-10,0v20.99h10v29h-10.01v10.01s-9.06.43-9.06.43l-1.87,10.13-10.07.43v9.01h-27.99l-.97-9.56-8.03.57-.43-10.07-8.57-.93v-10.01h-9v-50h-10.01c-.08-6.65.12-13.35,0-20,2.66-.07,5.35.05,8.01,0l-.47-10.05-6.53.05v-6l5.08-.44,1.05-3.41,4.87-.15c-1.21,6.5,2.02,11.11,9,10.01v-5.01h-4.01l1-5.99h-5l1-9h-4.99c2.32-7.06-1.01-4.52-2.74-6.28s-.06-5.22-7.27-3.73c-1.49,1.53,2.87,11,6.07,10.56l-.06,5.45-3.95.09-.13,2.77-5.93.12-.04-6.96-3.9-.14-.6-2.97-4.46.07v5.01h4.01s0,7,0,7h5s0,9,0,9h5c.04,3.31-.06,6.67,0,10-3.32.08-6.68-.06-10.01,0v-10.01c-3.31-.04-6.67.06-9.99,0-.06-3.32.04-6.68,0-10.01h-10.01v.04ZM494,382.02c.78.09,3.64.78,3.86,1.14l.14,4.87h6c-2.06,4.58.14,4.34,1.58,8.06l5.43-.07c1.41-3.35-1.88-4.16-1.99-4.67-.32-1.49.3-3.21,0-4.67-.19-.93-2.71-.18-2-2.13,6.58-4.85,7.6,1.12,6.06,6.86l4.89,1.66.03,4.97h7.01l.06-5.46-3.03-.58.07-3.36,1.53-1.47,6.37-.14v-5.01h5s-.14-8.36-.14-8.36c-.81-2.42-7.4-2.13-9.86-1.63l-.94-9.56-9.62.53c.37,5.74-4.76,2.61-4.54,8.93l-4.91.1-.06,5.46,2.95.61.11,4.94h-3.99v-5.01h-3l-.99,2v-8h-5.01s0-6,0-6h-8v7.01h7.01c.19,2.95-.27,6.06,0,9-2.01-.22-4.42.4-6.33-.02-.78-.17-.79-3.15-3.67-1.98l-.06,2.89-5.95.1-.09,3.95-2.97.6c.28,1.83-.34,4.1.08,5.79.23.93,3.34.08.99,4.66l2.9.06.1,4.95h5.01v5s10,0,10,0v-5.01s6,0,6,0l-.44-5.06-5.56-.94v5.01h-9.01v-5.01h6.01s.13-3.86.13-3.86c6.75-.24,3.21-7.36,2.87-11.13l-.03-.02ZM535,463.02h-20v10.01h-10.01s0,10,0,10h-17.49c-2.53,2.29-1.66,6.93-1.06,10.06l9.56.94c.64.65-2.73,10,.5,10h18.5v-10.01h10.01s0-10,0-10c.7-.71,8.64,1.41,9.99-1.49v-19.5h0Z"/>
  <path class="st0" d="M30,454.02v20h141l.94,9.57,88.56.43,2.36-1.64.14-8.36h105v10.01s10.01-.01,10.01-.01l.43,9.07,9.56.93v9H0v-29h10.01s-.02-11-.02-11h10.02s-.02-9-.02-9h10.01Z"/>
  <path class="st0" d="M60,222.02v190.5l1.5,1.5h287.5v9H60v10.01h-10.01s0,10,0,10h-9.99v-18.5c1.36-2.91,9.3-.78,10-1.49v-201h10v-.02Z"/>
  <path class="st0" d="M283,101.02h9.01c.1,10.18,2.11,19.8-.01,29.99h-10v10.01s-10,0-10,0v10h10.01v10s10,0,10,0l.93,10.56,19.64.37-.58,39.07-9.07.43-.93,9.57h-9.01v-30h-10.01v-10.01s-10,0-10,0c-.71-.7,1.41-8.64-1.49-9.99h-19.5v-18.5c2.64-2.85,7.43-1.05,11-1.5v-20h10.01v-10.01s10,0,10,0v-19.99Z"/>
  <path class="st0" d="M121,121.02h10.01v10.01s10,0,10,0v19.99h10.01v10.01s10,0,10,0l.93,10.58,9.06-.58.44,10.07,10.56.95c-1.63,5.67-1.64,13.28,0,18.98l-10.06.45-.93,9.57h-9.01l-.99-20.01h-9.01l-.93-9.56-10.06-.45v-10h-10.01v-10.01h-9.99v-40h-.02Z"/>
  <path class="st0" d="M131,463.02l.94-9.56c1.29-.9,17.44-.55,20.61-.49,17.26.33,34.66.99,51.91,1.1,35.87.24,71.86.06,107.54-1.05v10h-181Z"/>
  <path class="st0" d="M399,222.02h-10v140h10v-140Z"/>
  <path class="st0" d="M388,212.02h-75v9h75v-9Z"/>
  <path class="st0" d="M459,503.02h-10v-59l8.54-.75,1.46,1.25v58.5Z"/>
  <path class="st0" d="M212,212.02h-40v9h40v-9Z"/>
  <path class="st0" d="M449,504.02h-30v9h30v-9Z"/>
  <path class="st0" d="M70,463.02h-30c1.49-2.97,1.49-6.03,0-9h28.5c.21,0,1.13-1.49,1.49-1v10h.01Z"/>
  <path class="st0" d="M192,101.02h-10v20h10v-20Z"/>
  <path class="st0" d="M171,71.02h-9v20h9v-20Z"/>
  <path class="st0" d="M81,434.02h-20v9h20v-9Z"/>
  <path class="st0" d="M111,434.02h-20v9h20v-9Z"/>
  <path class="st0" d="M212,434.02h-20v9h20v-9Z"/>
  <path class="st0" d="M101,454.02h-20v9h20v-9Z"/>
  <path class="st0" d="M379,464.02h9.01c-.68,6.43,1.53,12.61,1,19h-10v-19h-.01Z"/>
  <path class="st0" d="M419,494.02h-20v9h20v-9Z"/>
  <path class="st0" d="M282,212.02h-19v9h19v-9Z"/>
  <path class="st0" d="M181,434.02h-19v9h19v-9Z"/>
  <path class="st0" d="M282,434.02h-19v9h19v-9Z"/>
  <path class="st0" d="M333,443.02c-2.28-15.1,5.81-7.46,16.01-9.01v9.01h-16.01Z"/>
  <path class="st0" d="M141.01,101.02v10.01l-9.07-.44c-1.83-1.28-.62-7.24-.94-9.57h10.01Z"/>
  <path class="st0" d="M40.01,453.03h-10.01l.44-9.07c9.42-3.41,10.46.35,9.57,9.07Z"/>
  <path class="st0" d="M131.01,434.02v9.01h-10.01c.33-2.35-.93-8.2.98-9.57l9.03.56Z"/>
  <path class="st0" d="M252,434.02h-10.01v9.01h10.01v-9.01Z"/>
  <path class="st0" d="M282,91.02h-9.01v10.01h9.01v-10.01Z"/>
  <path class="st0" d="M121,454.02h-10.01v9.01h10.01v-9.01Z"/>
  <path class="st0" d="M181,121.02h-9.01v10.01h9.01v-10.01Z"/>
  <path class="st0" d="M419,393.02h-10.01v9.01h10.01v-9.01Z"/>
  <path class="st0" d="M399,484.02h-10.01v9.01h10.01v-9.01Z"/>
  <path class="st0" d="M181,91.02h-9.01v10.01h9.01v-10.01Z"/>
  <path class="st0" d="M232,434.02h-10.01v9.01h10.01v-9.01Z"/>
  <path class="st0" d="M359.01,463.03h-9.01v-10.01c2.18.26,7.34-.82,8.57.94l.44,9.07Z"/>
  <path class="st0" d="M150.99,433.02v10h-9v-10c2.98,1.49,6.03,1.49,9,0Z"/>
  <path class="st0" d="M302,434.02l1,8.99-10.01.02v-9.01h9.01Z"/>
  <path class="st0" d="M332,454.02h-9.01v9.01h9.01v-9.01Z"/>
  <path class="st0" d="M322,434.02h-9.01v9.01h9.01v-9.01Z"/>
  <path class="st0" d="M524,373.02h-10.01v9.01h10.01v-9.01Z"/>
  <path class="st0" d="M488.99,387.03l.02,5h-9.01v-4l8.99-1Z"/>
</svg>