<?xml version="1.0" encoding="UTF-8"?>
<svg id="_Слой_1" data-name="Слой_1" xmlns="http://www.w3.org/2000/svg" version="1.1" viewBox="0 0 644 419">
  <!-- Generator: Adobe Illustrator 29.6.0, SVG Export Plug-In . SVG Version: 2.1.1 Build 207)  -->
  <defs>
    <style>
      .st0 {
        fill: #65e52a;
      }
    </style>
  </defs>
  <path class="st0" d="M353,1v16h47v17h48v15h41.5l1.5,1.5v15.5h41v17h49.5l1.45,2.4c-1.54,4.39-.84,9.04-.96,13.6l42.01,1v15h18v15h-31v147h17l-.14,12.36-.8,1.2-49.42.3-1.64-2.36v-11.5h17v-130h-32v18h-32v16h-56v18h-46.5l-3.5,1v16h-49v16.5l-3.45,1.55c-13.55-.17-27.09.43-40.55-1.05v16.5l-3.45,1.55-14.5-1.1-1.05-16.95h-44v-17h-49v-17h-48.5l-1.52-2.52c.47-1.62.8-15.48.02-15.48h-55v-16h-34v-18H31v-17H0v-12.5l1.5-2.5h17.5v-15h39.5l1.5-1.5v-15.5h52v-17h44l1-17h38v-15h46v-17h47V0l65,1Z"/>
  <path class="st0" d="M148,215h43v17l43.89,1.11.1,15.88,46.01,1.01v19h80v-19h45v-17l45-1v-17h44v-16h34v119h-30v18h-48v16.5l-1.5,1.5h-48.5l-1,18h-158v-18h-50v-18h-49v-16.5l1-1.5h-29.5l-1.5-1.5v-117.5h33.5l1.5,1.5v14.5Z"/>
  <path class="st0" d="M644,301h-83v58h83v-58Z"/>
  <path class="st0" d="M636,370l1.03,46.51-1.53,2.49h-66.5v-49h67ZM593.89,383.11l-9.9-.11v10.01h11.01l-1.11-9.9ZM621.01,382.99h-11.01v11.01l10.95-1.05.06-9.96Z"/>
</svg>