<?xml version="1.0" encoding="UTF-8"?>
<svg id="_Слой_1" data-name="Слой_1" xmlns="http://www.w3.org/2000/svg" version="1.1" viewBox="0 0 576.03 575.99">
  <!-- Generator: Adobe Illustrator 29.6.0, SVG Export Plug-In . SVG Version: 2.1.1 Build 207)  -->
  <defs>
    <style>
      .st0 {
        fill: #65e52a;
      }
    </style>
  </defs>
  <path class="st0" d="M324.04,0v48.5c0,.4-1.76,1.18.52,2.5l5.47-1,.08,4.94c1.51-.47,3.7,1.06,4.43,1.06h23.5v6h15v-5.01h7.01s0-7,0-7h6.99v-14h7.01v-8.01s5.99,0,5.99,0c-.23-2.21-2.21-4.4.46-5.77l14.55.77v6.01h7s0,7,0,7h13s0,7,0,7h9s0,8,0,8h13.99v6.01h5.01s0,7,0,7h-5.01s0,7,0,7h-6s0,8,0,8h-5c2.05,5.33-2.58,6.17-3.02,8.46-.38,1.98.49,11.1.03,11.54h-5.01v5.99c4.78-.45,7.01,3.14,11.99,1.01l.44,7.06,6.57.93v7.01h7s0,7,0,7h7l-.75,5.54,1.38,1.31,12.75.2,1.66-7.01,12.96-.05v-7.01h8s0-7,0-7h13v7.01h7.99c-2.79,6.12-.21,7.76,6,6.99v14h7v14h7l.46,7.05,5.54-.05v14h-5.01v7.01s-8,0-8,0v6.99l-14-1v8.01h-7s0,6.99,0,6.99l-5.99-1v20h7v23h7l-1,6h48v71h-48v7l-6-1v23h-7v21l6-1v8.01h7.01s0,7,0,7h13.99v6.01h8.01s0,6,0,6h6s-.14,13.36-.14,13.36c-.77,2.33-3.91,1.57-5.87,1.64v7.01h-8s.57,14.02.57,14.02l-7.57.97v7.01h-7s1,12.99,1,12.99l-7.06.45-.93,6.57h-6.01c-.12-2.16.88-6.04-1.63-6.87l-13.37-.13-.93-6.57-10.06-.45c1.01-1.9,2.11-5.97-.65-6.89-5.84.94-10.53.79-16.35-.11v7.01h-7.01s0,7,0,7h-7s0,7,0,7l-6.56.93-.43,6.07h-12.01v14.99h5.01v13.01s8,0,8,0v9s6,0,6,0v13h-6.01v7s-8,0-8,0v7s-10,0-10,0v7s-10.36.13-10.36.13c-2.33.78-1.57,3.91-1.64,5.87h-7.01v6h-16v-6.01h-5.01s0-6,0-6h-6.99v-14l-7.06-.44-.93-6.57h-6.01v-7c-3.04.62-13.82-1.54-14.86,1.64l-.15,6.36c-3.26-2.08-6.06-.09-9.45.05-6.15.24-12.39-.27-18.55-.05v5.01l-6.03.45-.95,1.98c.05.93.99,1.74.99,2.06v44.5h-72v-49l-5.99,1v-6l-27.9-1.1-1.11-6.89h-14v7.01h-7.01s0,7,0,7h-6.99v14h-7.01v12h-21v-6.01h-8.01s0-6,0-6h-12s0-7,0-7h-9s0-7,0-7h-8s0-7,0-7h-12s0-6.99,0-6.99l6.06.57c1.82-1.97.91-4.45-.06-6.57,10.08,1.59,4.8-8.88,5-15.01h9.01v-7l5.57-.93c.39-2.81,1.69-12.98-1.21-13.92l-11.36-.14.57-6.02c-1.39-1.93-4.75-.86-6.56.02v-8h-7.01s0-7,0-7h-7.99c1.33-1.5,1.45-6.99-.5-6.99h-17.5v7.01h-10.01s0,7.99,0,7.99l-13-1v7.01l-7.99.99v-8h-8.01s0-13,0-13h-6s-.97-7.56-.97-7.56l-6.03.56v-15l-5.99,1-.46-8.05c-1.3-1.92-3.89-.64-5.55.05v-15h4.01l.93-5.57,8.07-.43v-6.01l12.05-.46.89-7.09,7.06-.43v-7.01h5.99v-20h-7c1.89-6.76-1.09-14.66,0-22.01h-6.01v-5.99H0v-72h48v-6.01h7v-23l6,1v-20h-6.01l-.46-7.05-7.09-.93.56-7.02h-13.01l-.93-6.56-7.07-.43v-6.01h-5.99v-14h7.01v-7.01s6,0,6,0v-13.99h6.01v-13.01s7,0,7,0v-8s8,0,8,0v-7s13,0,13,0v7.01h8s0,7,0,7h10s0,7,0,7h18.99v-7.01h7.01s0-7,0-7h7s0-7,0-7h7s0-7.99,0-7.99c5,3.25,6.87-3.66,11.99-1v-6h-5.99v-15l-3.99,1.01c-.09-3.9,0-5.89-4.07-6.57l.07-7.44h-5.01v-7s-7,0-7,0v-7h7.01v-6s13,0,13,0v-8s8,0,8,0v-7s13,0,13,0l.93-6.56,7.07-.43v-6.01h20.99v13.01h7v14h7.01v7.01s6,0,6,0v4.99h15c.11-2.15-.86-6.04,1.64-6.86l25.8-.08,1.49-4.63,6.08.58V1.53l1.5-1.5h70.5v-.03ZM189.04,444c.04,2.33-.04,4.68,0,7.01h15.01v-7.01s7,0,7,0v-7s13,0,13,0v7.01h7s0,6,0,6h26.49l1.43,1.64-.83,4.78,1.4,1.58h64.5v-7h20v-7h14v14h8c-4.88,9.55,7.77,7.61,13.56,6.07l.44-6.07h36v-14h7.01v-7h15v-43h7.01v-13.01s7,0,7,0v-20.49c-1.62-2.27-4.57-1.43-7.01-1.49l-.77-19.54,6.74-1.5.17-19.32c.77-2.3,3.91-1.62,5.86-1.64v-56h-5v-14h14v-8.01h6.01s0-6,0-6h5.99v-36l-6,1v-21h-6.01v-6.43s6.01-.57,6.01-.57v-21h-7.01v-7.01s-7,0-7,0v-7s-6,0-6,0l-.93-7.56-7.07-.43v-7.01l-21,1.01v-8.01h-21.99l-.94,7.56-7.07.44.06,6.53h-6.11v-4.89l-1.44-1.64h-33.5v7h-36c1.03-1.94,1.91-6.27.06-7.56l-57.07.56v7.01h-28.99v7h-20v7.01h-7.01s0,7,0,7h-13.99v7.01h-7.01s0,7,0,7l-7.06.43-.93,6.57h-7.01v7l-6.94.05-.05,6.95h-7.01v7s-6,0-6,0v13.99h-8v14h-7v20h-6v22l-6.04.46-.87,1.15c-.15.84.92,1.6.92,1.89v52.5h5v22l-5-1v33.5c0,.21-1.5,1.14-1,1.49h6v8.02s7,0,7,0v13c2.11.1,6.12-.84,6.9,1.66l.1,5.32h-7.01v14.01h6.01v7.01s9,0,9,0v8s6,0,6,0v13.99c11.98-.08,24.02.11,36,0-.04-2.33.04-4.68,0-7.01h-28.01v-14.99h-7.01c-.12-2.15.88-6.04-1.63-6.86l-13.37-.13v-13.01h8.01v7.01l6.06-.44.94-14.57-6.07-.43-.93-6.57h-7.01v-13.99h-8v-34l7.06-.44.93-6.57h13.01v49.01h7v19.5c1.62,2.26,4.57,1.43,7,1.5v-64h-6v-14h28v14h-7v35l-6.35.16-1.65,1.34v27.5h8v-28h7v-14h7v-34.5l1.5-1.5h26.5v7.01h7.01s0,7.99,0,7.99l7-1v7.01h-7v14h-7.01v7.01s-7,0-7,0v7s-7,0-7,0v7s-7,0-7,0c-.07,4.64.11,9.34,0,13.99-2.33.04-4.68-.04-7.01,0v7.01h-7s0,8,0,8h7.01v-7.01h7c.04-2.65-.07-5.34,0-8,2.33-.04,4.68.04,7.01,0v-6.01h8s0-7,0-7h6l.13-6.86,6.86-1.15v-13h7.01s0-7,0-7h13.99v7.01h7.01s0,13,0,13h-7.01s0,7,0,7l-14,.99v6.01h-7c-.07,2.31.1,4.67,0,7-4.65.13-9.35-.1-14.01,0v7.01h-7s0,7,0,7l-7.06.43-.93,6.57h-6.01l.58,8.01h6.43v-8.02h14v-6.01h7.01s0-7,0-7h7c.07-2.64-.11-5.34,0-8,2.33-.07,4.68.05,7.01,0v-6.01h20.99v27h-7v14h-56v8.01h7.01s0,7,0,7c-4.66.03-9.35-.05-14.01,0v-.02Z"/>
  <path class="st0" d="M490.04,458v7.01h10c.76,3.18-.81,6.73-.8,9.5,0,2.56,2.68,10.22-.84,11.36l-7.37.13v7l-4.53-.04-.46,6.05-28.01,1v-7.01h-5.99v-14h6.01v-7s7.56-.93,7.56-.93l-.57-6.06h7v-7.01h18Z"/>
  <path class="st0" d="M522.04,479h13s.97-7.56.97-7.56l14.02-.44v8.01l6.02-.02-.02,7.02h7.01s0,20.99,0,20.99h-7.01s.01,7,.01,7h-20l-.93-6.56-6.08-.43-.96-7.57-6.03.56v-21Z"/>
  <path class="st0" d="M521.04,521v7.01s7-.01,7-.01v14h-7.01s0,7,0,7l-6.06-.57-.93,5.57h-15v-6.01s-8.01.02-8.01.02l.02-6.02h-5.01s0-13.99,0-13.99h5.01s-.01-7-.01-7h30Z"/>
  <path class="st0" d="M401.04,149c-7.3-.3-14.7.22-22.01,0v7.01h-7s0,7,0,7h-7s0,7,0,7h-7s0,6,0,6h-13.99v-6.01c-2.15-.12-6.03.88-6.86-1.63l.85-18.37,6.57-.93.43-7.07h7.01v-6.99h64v-7h21v7.01h7.01s0,7,0,7h7s0,7,0,7h7s0,7,0,7h-7.01c.76,6.95-3.48,15.93,7.01,14v14h7v49l-7.07.43-.93,5.57h-12v-74.5c-1.94-2.34-6.21-2.24-8,0v81.5h-29l.44-12.06,7.56-.94v-20h7v-22h7v-28h-8v21h-7v21l-7-1v22l-7-1c.84,4.82-2.47,9.53,0,14h-21l-.93-5.57-6.07-.43v-8.01h-7s0-12,0-12h7.01s0-8,0-8h7s0-7,0-7h7s0-7,0-7h6.99v-14h7.01v-7.01s7,0,7,0l.46-6.09,7.07-.82.47-7.1h-8.01v7.01s-7.06.43-7.06.43l-.93,6.57h-6.01v6s-7.06.43-7.06.43l-.94,6.56-6.86,1.14-.13,6.86h-6.01l-.93,6.56-7.07.43v7.01h-7s0,7,0,7h-6v-7.01h-7c.05-7.31-1.98-13.67,0-21h14v-7.01l6.07-.43.93-6.56h14v-7l6.07.57.93-7.57h14.01c.03-2.32-.05-4.67,0-6.99,1.34.05,3.79,2.17,6.07.57l.93-7.58h-7.01c-.03,2.33.05,4.68,0,7v.02Z"/>
  <path class="st0" d="M352.04,381c-.14-4.98.1-10.02,0-15.01h-8.01v-20.99h8.01v-6h27v27h7v35h8v14h7v-21h-7v-34h-7v-21h21v76h8v-62h6.01l.57-7.02h7.43v7.02s7,0,7,0v40.99h-8.01l1,13.99h-8v15.01h7l1,5.99-14.06.45-.93,14.57h-7.01v5.99h-22v-6.01h-6.43s-.57,6.01-.57,6.01h-13.01v-6.01h7.01l-.14-6.36-1.5-1.5-47.36.86v-8l-8,1v-8.01h-7v-20h7.01v-8l7.99,1-.57,6.02,13.57.97v7.01h7s0,6,0,6h13.99l.44,7.06,6.57.93v7.01h8v-8.01h-7.01s-.93-6.56-.93-6.56l-6.07-.43v-7.01h-7l1-6.99h-9v-7.01h-14v-7.01h-6.01s0-7,0-7l-7.99,1v-7h7.99v-14h13v14h7.01v7.01h8c.07,2.33-.05,4.68,0,7.01h6.01v13s7,0,7,0v8s8,0,8,0v6s6,0,6,0l.93,7.56,6.63-.5.44-7.07h-7v-14h-7.01v-7.01s-7,0-7,0v-7s-7,0-7,0l-.97-6.56c-2.04.23-3.93.56-6.03.56v.05Z"/>
  <path class="st0" d="M167.04,191h8.01v-7.01s7,0,7,0v-7s7,0,7,0v-7s7,0,7,0v-7c7.01-.85,14.18,2.87,20.99,0v7h7.01s0,7,0,7h6.99v28h-7.01v7.01s-7,0-7,0v6.99h-41.99v-7h-8.01v-20.99h.01Z"/>
  <path class="st0" d="M168.04,254l-1.01-14,7.07-.43.93-6.57h7.01v6.01s7,0,7,0v21.99h-7l1,14.01h-9.01l.96,5.51-2.04,1.09-4.99-.18-.93,6.57h-17.5c-.21,0-1.14,1.5-1.49,1l-.98-7.56-8.03.56v-28h29.01Z"/>
  <path class="st0" d="M409.04,282l-1,6h9.01s-.02,8.01-.02,8.01h13.01s0,13.99,0,13.99h7v14h-43v-7.01s-7.01.02-7.01.02l.02-7.02h-7.01s0-13.99,0-13.99h7.01s-.02-8.01-.02-8.01l7.02.02v-6.01s14.99,0,14.99,0Z"/>
  <path class="st0" d="M337.04,198v14h7.01s-.02,7.01-.02,7.01h8.01s0,13.99,0,13.99h-8.01s.02,6.01.02,6.01l-7.02-.02.02,7.02h-7.02l.02-7.02-6.02.02.02-6.02h-8.01s.56-7.02.56-7.02l-6.57-.96v-12.02l6.02.02-.02-8.02,8.02.02-.02-7.02h13.01Z"/>
  <path class="st0" d="M309.04,135v7.01h7.01s0,7,0,7h-7.01s0,7,0,7h-8s-.57,7.01-.57,7.01h-12.43l-.93-6.58-7.06-.45c2.56-4.57-.58-9.15,0-13.99h8.01v-7h21-.02Z"/>
  <path class="st0" d="M160.03,226.01l7.03.57v12.43s-6.58.92-6.58.92l-.43,6.08h-13.02v-7.01s-6.98,1-6.98,1l-.02-13.01,6.57-.92.43-6.08,13-.99v7.01Z"/>
  <path class="st0" d="M415.04,120.99h-7.01v7.01h7.01v-7.01Z"/>
  <path class="st0" d="M465.04,155.99h-6.01v7.01h6.01v-7.01Z"/>
</svg>