<?xml version="1.0" encoding="UTF-8"?>
<svg id="_Слой_1" data-name="Слой_1" xmlns="http://www.w3.org/2000/svg" version="1.1" viewBox="0 0 744.04 687.01">
  <!-- Generator: Adobe Illustrator 29.6.0, SVG Export Plug-In . SVG Version: 2.1.1 Build 207)  -->
  <defs>
    <style>
      .st0 {
        fill: #65e52a;
      }
    </style>
  </defs>
  <path class="st0" d="M448.99,174.01l1.14,9.86c2.1.57,11.86-.86,11.86,1.64v18.5l13,1v30h12.01v42h-23.5c-2.07,0-1.51,7.34-1.5,9l51.01.99c.07,1.87-.7,10,1.49,10h24.5v10h38v11h-25l-.75,8.54c.07.45,1.08,1.46,1.25,1.46h49c.11,0,1.5,1.39,1.5,1.5v49c0,2.45-10.75,1.25-13.01,1.49v89.51c-.2,4.85-11.87,1.37-13,2.49v10.01h-38.99v-143h-12v39.5c0,2.96-8.58.61-10.28.75-4.78.4-2.11,5.98-2.72,9.76h13.01v30.49c0,3.48-16.21.48-18.5.5-5.88.05-13.15,2.01-19.51.99v9.01h38.01v52h-13.01v10h-62.5c-2.62,0-.86,9.06-1.6,9.89-21.11.76-42.62,1.47-63.9,1.1v10.01h-62.49c-2.2,0-1.42,8.13-1.49,10h-61.51c-4.24-.35-1.94,10-2.5,10h-52v-52h26v-9h-26v-32h64v-9h-64v-39.5c0-2.22-12-2.22-12,0v141.5l-12.06.44c-2.1,1.46.31,10.56-2.44,10.56h-49c-.11,0-1.5-1.39-1.5-1.5v-111.5c0-.67-13,1.33-13-1.5v-29.5h-11.01l-.99,21.01h-13.01c0,1.15-.08,2.33-.04,3.51.38,9.3,5.78,4.28,12.93,5.6l1.1,9.89h12.01v92.99h-13.01c-.07-1.87.7-10-1.49-10h-24.5c1.66-12.64-2.85-9.97-13.01-9.99l-.12-9.87c-8.25-1.68-16.42.01-24.76-.25l-1.1-10.89h-12.01c-.26-2.36.43-5.24,0-7.5-.9-4.81-13-1.56-13-2.5v-141.5c0-2.83-13-.83-13-1.5v-114h13.01v-10.01s12.06-.43,12.06-.43c1.84-1.28.62-7.23.94-9.56h75.5c2.3,0,1.36-9.01,1.49-11.01l126.39.07c2.22-1.31,1.1-10.06,1.62-10.06h102v-10h116-.02ZM242.99,196h-11.01v9.01h11.01v-9.01ZM255.99,206.01h-12v17.5c0,2.38,9.87,1.3,12,1.5v-19ZM37.99,226.01H13.99v9h25l-1-9ZM268.99,256.01c1.01-1.01,0-24.63,0-28.5,0-2.38-9.87-1.3-12-1.5v28.5c0,1.95,11.56,1.94,12,1.5ZM50.99,266.01v-28.5c0-1.96-11.56-1.93-12-1.5-.44.43,1.13,6.64,1.09,8.49-.06,2.94-1.2,5.67-1.17,9.02.04,4.12,1.79,8.18,1.07,12.49h11.01ZM281.99,359.01v-100.5c0-2.38-9.87-1.3-12-1.5v102h-24.5c-2.05,0-1.56,7.33-1.49,8.99l38.93,1.07.06,9.94h24v-10.01c5.3.75,10.36-.82,15.45-1.04,2.35-.1,8.48,1.05,8.97.93,2.97-.71,1.01-10.88,1.58-10.88h77v-9h-89v10h-39ZM63.99,328.01v-59.5c0-2.38-9.87-1.3-12-1.5v81h12.01v-10h39c-.29-2.45,1.14-7.95-1.64-8.86l-37.36-1.14h0ZM460.99,307.01v-17.5c0-2.09-12-3.95-12-1v17c0,1.95,11.56,1.94,12,1.5ZM447.99,309.01c-1.97-1.01-12-2-12,.5v29.5h-25v9h38v10h25c.44,0,.32-7.69-.94-8.56l-12.07-.43c-.32-2.33.92-8.28-.93-9.57l-12.06-.44v-30ZM550.99,329.01h-12.01v9l10.95-.06,1.05-8.94h.01ZM127.99,339.01h-25l1,9h24v-9ZM50.99,349h-11.01v9.01h11.01v-9.01ZM153.99,349.01h-25v9h25v-9ZM26.99,360.51c-1.07,3.45,0,21.68,0,27,0,1.95,11.57,1.94,12.01,1.51,1.03-1.04-.02-27.97-1.61-29.11-1.67-1.2-9.67-1.73-10.39.61h0ZM177.49,359.01c-4.77-1.47-16.82,1.09-22.5,0v9c3.42.04,22.49,1.46,24.01,0,.34-.33.53-8.38-1.51-9.01h0ZM498.99,359.01h-24v9c4.08-.87,23.47,3.53,24.88-.65.42-1.24-.56-8.08-.88-8.35ZM178.49,380.01h-49.5v9h63v-10h47.5c5.17,0,3.28-5.28,3.51-9.01-12.56.26-24.96-1.21-37.55-1.04-2.36.03-4.55.98-6.92,1.08-2.89.12-17.89-.7-18.55-.05-.66.65,1.33,9.13-1.49,10v.02ZM511.99,370h-11.01c-1.32,10.66,2,9.26,11.01,9.01v-9.01ZM332.99,380.01h-25c-.44,0-.32,7.69.94,8.56l12.07.43c.07,1.87-.7,10,1.49,10h23.5c.44,0,.32-7.69-.94-8.56l-12.07-.43v-10.01h0ZM50.99,390h-12.01l1.15,8.86,10.86.15v-9.01ZM127.99,390.01c-.47-.47-11.32-1.2-12.01,2.5-.18.97-.23,6.28,0,6.51.47.47,11.32,1.2,12.01-2.5.18-.97.23-6.28,0-6.51ZM511.99,390.01h-50v9h50v-9ZM75.49,400.01c-4.96-1.53-17.59,1.14-23.5,0,.29,2.45-1.14,7.95,1.64,8.86,3.06,1,12.77-.03,16.91.09,2.12.07,4.22,1.14,5.94,1.06.8-.03,1.33-9.3-.98-10.02h0ZM358.99,410.01c-.32-2.33.9-8.28-.94-9.56l-11.07-.44v10.01h-13s0,10,0,10h24.51c2.87,0,.42,6.3.46,7.55.15,4.37,2.17,8.6.15,12.86l-12.12.58v10.01h-49.49c-1.77,0-3.94,10-1,10h61c2.3,0,1.36-9.01,1.49-11.01l61.48,1.06c4.22-.61,2.08-7.03,2.53-10.05h-50.5c-.11,0-1.5-1.39-1.5-1.5v-18c0-.11,1.39-1.5,1.5-1.5h36c2.19,0,1.43-8.13,1.5-10h-51ZM410.99,409.01h48.5c2.14,0,2.14-9,0-9h-48.5v9ZM89.99,420.01c.16-2.18-.17-8.35-1.97-9.54-1-.66-9.69-.82-10.04-.47-.35.35-.37,8.66.94,9.57l11.07.44ZM269.99,430.01h63v-9.01c-21.02.13-42.02-.24-63.01,0v9.01h0ZM486.99,431.01h-62.5c-2.08,0-1.5,7.33-1.5,9h63l1-9ZM294.99,462.01h-63v9h61.5c1.91,0,1.83-8.67,1.5-9Z"/>
  <path class="st0" d="M511.99,522.01v-10.01l89.36.14c2.45.81,2.09,8.64,1.2,9.93-1.61,2.31-9.33-.23-11.63,1.37-1.31.91-1.25,8.26-.94,8.57,1.06,1.06,12-2.36,12.56,2.94-2.14,13,10.48,6.09,12.45,8.05,2.07,2.06-5.73,13.35,12,10.01v-10.01h13.99v11.01h-13c0,1.65-.57,8.99,1.5,8.99h23c.11,0,1.5,1.39,1.5,1.5v18.5l10.95-.06,1.05-9.95,12.9.12c6.43,16.61-10.13,10.1-11.9,11.88-.33.33-.41,9.01,1.5,9.01h23.5c-1.66,12.64,2.85,9.97,13.01,9.99v11.01h-49.51c-2.2,0-1.42,8.13-1.49,10-7.7.83-62.17-1.58-63.87,1.14-1.17,1.87,1.56,8.62-1.78,9.72-6.02,1.58-47.61-1.61-49.36.14-.47.46,1.07,10-1.49,10h-62.5v10h-51c-.51,0,.6,8.75-1.62,10.06l-59.85-.03c-5.17.97-3.26,7.13-3.52,10.98h-50.01l-1,10h-39v-11.01c6.19-.73,12.56,3.12,12.08-5.51-.42-7.5-6.37-3.64-12.08-4.48v-10.01l-11.06.44c-1.85,1.29-.61,7.24-.93,9.57l-13.07-.44c-1.46-2.93-2.29-9.84,1.56-10.57,7.62-1.43,11.83,3.87,10.51-9l-12.07-.43c-1.85-1.29-.61-7.24-.93-9.57h-10.43l-1.51,9.57-13.07.44v-11.01h13.01s-.44-9.06-.44-9.06c-1.52-2.18-11.82-.19-12.57-.93-2.07-2.06,5.74-13.34-12-10.01v10.01h-13.99l.44-10.06c1.38-1.98,9.84-.49,12.57-.93v-9.01h-13.01s-.57-10.01-.57-10.01h-11.43v10.02s-12.94-.06-12.94-.06c-3.04-13.05.67-11.22,11.95-10.94v-9.01h-23.51c-2.38,0-1.3-9.87-1.5-12h49.5c2.2,0,1.42-8.13,1.49-10h61.51c4.24.35,1.94-10,2.5-10h64v-10h51c.44-2.6-1.34-9.88,1.64-10.86,7.49-1.93,60.15,2.06,62.36-.14.47-.46-1.07-10,1.49-10h62.5ZM485.99,544.01h-24c1.66,13.73-3.09,8.43-12.56,10.94l-.43,9.07h-13.01v10h-25l-1.05,9.95-37.96,1.05v10.01h-13c-.44-2.6,1.35-9.89-1.64-10.86l-34.71-.04c-3.3,1.09-.82,10.08-1.64,10.91-1.27,1.27-12.07-2.55-13.01,2.49-.42,2.27-.35,15.16.94,16.06l11.07.44v-10.01h26.99v21c0,.65-11.31-.75-12.89,1.11-.93,1.09,1.11,7.96-1.05,9.46l-12.07.43c.29,2.45-1.13,7.95,1.64,8.86,1.65.54,33.07.54,34.72,0,2.9-.95,1.26-7.28,1.64-9.86h12.01v-19.5c0-.11,1.39-1.5,1.5-1.5h24.5v-10h38v-10h27v10h25v-10.01l11.89-.11c1.75-1.49,1.19-16.73-.35-18.93-.98-1.4-9.25-1.46-10.6-.52-2.11,1.47-.22,8.72-.99,9.51-.56.58-10.62,1.58-12.01.61-2.26-1.57.39-8.55-1.87-10.12l-12.08-1.01v-10.43h13.02s0-10,0-10c2.22-.06,10.86.46,11.85-1.14.29-.47.42-7.58.14-7.86h.01ZM408.84,554.15c-1.46-.92-8.48.36-10.86-.15v9.01c2.63-.47,9.2.87,11.06-.44,1.73-1.22.84-7.77-.2-8.42ZM524.99,554h-12.01c-1.56,11.38,2.99,8.99,12.01,9.01v-9.01ZM562.99,573.01c1.7-10.11-3.09-10.65-11.58-8.04l.57,8.04h11.01ZM537.99,594.01c-.25-2.18.82-7.34-.94-8.57l-11.07-.44c.25,2.18-.82,7.34.94,8.57l11.07.44ZM562.99,595h-11.01v9.01h11.01v-9.01ZM501.63,615.15c-2.47.81-2.26,8.34-.7,9.42,1.29.9,9.66.89,10.63-.5.89-1.29.89-7.66-.5-8.63-1.06-.74-8.02-.75-9.42-.3h-.01ZM447.85,626.15c-4.28-1.25-11.21-3.42-11.92,2.32-1.18,9.54,5.23,5.98,12.06,6.54l-.15-8.86h.01Z"/>
  <path class="st0" d="M704.99,0v10.01h13.01s0,10,0,10c2.24.24,12.99-.96,12.99,1.49v19.5h12.01c.05,8.56,1.1,16.94,1.04,25.55-.02,2.85-1.11,5.36-1.09,7.91.11,16.6,1.7,32.97.05,49.55h-12.01v19.99c0,.72-12.1-1.19-13.01,3.49-.38,1.96.23,4.45.01,6.51l-12.07.43c-2.1,1.46.31,10.56-2.44,10.56h-139.5v10.01h-12.01c1.67,12.64-2.85,9.96-13,9.99v10.01l-12.99,1c-.37,2.33.92,8.26-.94,9.55-1.33.93-26.06.74-26.06-.56v-40h-38c3.89-17.42-10.53-8.52-13.01-11-.58-.58,1.12-7.09-.95-8.55-2.07-1.46-10.36-.72-11.63-2.39-.58-.76,1.15-15.99-.41-19.07h-12V41c2.96-.35,6.71.53,9.5,0,5.57-1.05.45-16.5,2.93-20.06,1.38-1.98,9.85-.49,12.57-.93v-10.01h13s0-10,0-10h244.01ZM703.99,21.01h-242c-.77,6.09,2.99,10.29-4.49,11-1.5.14-8.51-.42-8.51,0v99.5c0,2.45,10.75,1.25,13.01,1.49v10.01h63.99v31c18.04,2.9,9.54-6.89,12.11-9.89,1-1.17,9.77-1.11,11.84-1.16l1.05-8.94,11.88-1.12,1.12-9.89h140v-10.01c1.12-1.12,12.79,2.36,13-2.49l-.44-97.56c-1.67-2.39-10.46.52-12.13-1.87l-.44-10.06h.01Z"/>
  <path class="st0" d="M525.99,51.01v20.5c0,2.83-13,.83-13,1.5v20h-13l1.11,8.89,23.96.55c1.3.9,1.32,10.19.94,10.57-.62.62-15.29,1.05-17.56,1.04-6.66-.03-14.63-1.69-21.51-1.48-2.97-2.06,1.09-16.62.06-20.57h12.01v-20h13.01v-10.01c-5.38-1.24-21.2,2.23-25.05-.46-1.87-1.3-1.3-10.54.54-10.54h38.5-.01Z"/>
  <path class="st0" d="M627.99,72.01v11.01l-12.06.43c-1.85,1.29-.61,7.24-.93,9.57h-12.01v9h25v11.01c-13.13,1.07-25.84-.08-39,0v-21h13c1.77-11.96-3.95-8.74-13.01-8.99v-11.01h39.01v-.02Z"/>
  <path class="st0" d="M576.99,72.01v11.01h-13.01s0,10,0,10h-13l1.62,9.06,23.45.38c1.89,1.32.57,8.1.94,10.57h-39.01v-21.01h13c1.77-11.96-3.95-8.74-13.01-8.99v-11.01h39.02Z"/>
  <path class="st0" d="M704.93,112.96c-.63.65-11.57,1.61-13.01.61-1.44-1-1.4-9.33-.5-10.63.97-1.39,11.32-1.41,12.63-.5,1.31.91,1.25,10.13.88,10.51h0Z"/>
  <path class="st0" d="M653.99,113.01h-14c.66-4.69-2.38-10.32,3.45-11.05,10.99-1.37,11.32.56,10.55,11.05Z"/>
  <path class="st0" d="M678.99,102h-13.01v11.01h13.01v-11.01Z"/>
</svg>