<?xml version="1.0" encoding="UTF-8"?>
<svg id="_Слой_1" data-name="Слой_1" xmlns="http://www.w3.org/2000/svg" version="1.1" viewBox="0 0 815.01 580.02">
  <!-- Generator: Adobe Illustrator 29.6.0, SVG Export Plug-In . SVG Version: 2.1.1 Build 207)  -->
  <defs>
    <style>
      .st0 {
        fill: #65e52a;
      }
    </style>
  </defs>
  <path class="st0" d="M507,161.02h12.01v-13l12,.53v-12.54h12s0-11,0-11l11.94-1.04.05-10.96h13.01v-13s13,0,13,0v-12s12.06-.43,12.06-.43l.93-12.57h12.01c.43-2.48-1.22-12.27,1.45-12.74,7.12,1.1,15.62,1.52,22.53-.25v12h12.01s0,11,0,11h11s0,10,0,10h11s0,11,0,11l10.99,1v21h-11.01v11.01s-12,0-12,0v12s-12,0-12,0v12s-11,0-11,0v11s-10.88,1.11-10.88,1.11l-1.75,8.98-10.36.91v11.01h-11s0,11,0,11l-11.06.43-.93,9.57-10.95,1.04-.05,10.95h-21l-.99-11.01-10.07-.43-.93-10.57h-11.01v-11s-10,0-10,0v-11c-.77-.78-9.54,1.5-11-1.49v-22.5h0Z"/>
  <path class="st0" d="M482,175.02v11.01h12.01s0,12,0,12h12s0,11,0,11h10s.93,9.56.93,9.56l11.07.43v11.01h11s0,12,0,12h12s0,13,0,13h10.99v16.5c0,.21,1.49,1.13,1,1.49l-11.56.95.56,10.05-11.9,1.11-.1,9.89h-11.01v12.02s-12,0-12,0v10s-10,0-10,0v10.99h-14v-12.01h-11.01s-.43-11.06-.43-11.06c-1.28-1.83-8.47-1.13-10.55.06v-11h-10.01s0-10,0-10h-11s0-11,0-11h-9s0-10,0-10h-11s0-10.99,0-10.99l-8.99,1v-11.01h-12.01v-17h14v-12.01h13.01s0-13,0-13h13s0-13,0-13h12s0-12,0-12h21Z"/>
  <path class="st0" d="M524,528.02v15l-86.6,1.9-1.94,1.06-.46,13.04-9.9,1.1-.1,9.89-11.07.44c-1.85,1.3-1.07,7.54.06,9.56H0v-15h142.5c2.8-1.26.86-8.37,1.5-9h10.01l.99-16h13.01v-11h17v17h-10l-1.04,9.95-6.96.05c.28,3.02-1.1,6.88,1.5,9h182.5v-8.01h-6.01s0-11,0-11l-11.38-.11c-2.48-.93-.62-2-.62-2.38v-14.5h17v11.01h12c-2.22,3.7.65,7.03-.56,11.02l10.57.96c.9.9-1.64,11.35,1.49,13.01h32.5v-12.01h12.01s0-13,0-13h12s0-12,0-12h93.99v.02Z"/>
  <path class="st0" d="M264,426.02v28h12.01v11h14v11h14v12.01h11v33h-11.01v13.01s-13,0-13,0v8l-10.03-.57-.97,8.56h-44v-8c-4.21.68-8.12-2.29-11.99,0v-9h-12.01s0-13,0-13h-11s1.05-34.94,1.05-34.94l9.95-.05v-14l11.99,1-.99-11.99,12.06-.45.93-11.57h11.01v-21.99h17v-.02ZM295,496.02h-10.01v12.01s-9,0-9,0v10s-13.06.43-13.06.43l-.93,7.57-11.07.43-.94,9.56h26l1.05-7.95,8.96-.05v-8.01h8.99v-24h.01Z"/>
  <path class="st0" d="M398,317.02v12.01h11.01s0,11,0,11h11.99v20h-12.01v10h-10v10s-10.06.43-10.06.43l-.93,9.57h-10.01v9s-6,0-6,0v9s-10,0-10,0v9s-11,0-11,0v11s-10.06.43-10.06.43l-.94,9.56h-18.5c-.27,0-3.44,1.19-3.56,1.62l.06,9.38h-11.01v12l-11.49,1.01-.51-9.02-8.99-.48.99-13.52c3.41,2.07,6.44.38,9.99,0v-14.5c2.64-2.85,7.43-1.05,11-1.5v-25h8.01v-11l9,1v-11.01l8.99,1v-9h7.01s0-9,0-9h10s0-10,0-10h10v-10h11v-11.01h10s0-12,0-12h15.99l.03.03Z"/>
  <path class="st0" d="M785,580.02h-336v-15h333.5c.13,0,2.32-1.92,2.47.48.01.23-.97,1.7-.99,2.99-.06,3.83-.56,7.98,1.02,11.53Z"/>
  <path class="st0" d="M767.5.02c.49.06,3.44,1.18,3.56,1.62l-.06,12.38h11.01v7s11,0,11,0l.93,12.56,8.07.43.95,8.53,12.05.47v31h-16v-15h-9v-17h-10.01l-.93-11.56-13.07-.43v-10.01h-37.99v10.01h-11.01s0,10,0,10l-8.56.93-.43,12.07h-11.01v-11l-8.94-1.06-.05-7.96-10.9-.11c-1.34-4.12-1.34-7.67,0-11.78l11.9-.11v-8.01c6.27-.55,11.76,2.33,17.89-.1l.11-12.89h60.5v.02Z"/>
  <path class="st0" d="M425,273.02v11.01s11.01-.02,11.01-.02l-.02,10.02,10.02-.02-.02,11.02,11.02-.02-.02,9.02h12.01s0,15.99,0,15.99l-11.06.43-.93,10.58-11.02-.02.02,12.02h-11.01v-14.01l-7.94-1.05v-8.48s-8.06-.47-8.06-.47v-9.01s-10.01.02-10.01.02v-8.01l-9.93-.05-.06-6.95h-15v-10.01s12.01.02,12.01.02l-.02-11.02,11.02.02v-11.01s17.99,0,17.99,0Z"/>
  <path class="st0" d="M711,93.02l-11.56.94-.43,11.07-12.96-.06-1.04-10.95h-10.01l-.1-9.89-10.9-1.1v-10.01h-11s0-11,0-11h-11s0-9,0-9l-13.05-1.57.05-11.43h11.01v-9s7,0,7,0v-7s7,0,7,0l.93,7.57,11.06.45c-2.3,3.89.68,7.75,0,11.99l10-1v9.01h11s0,12,0,12h12s0,12,0,12h11.99v17-.02Z"/>
  <path class="st0" d="M785,528.02l-1,16c-3.25.17-6.15-.95-9.45-1.05-29.09-.93-59.88-.33-89.09,0-4.39.05-8.51,1.83-13.46.03,1.62-4.51,1.61-10.51,0-14.99h113Z"/>
  <path class="st0" d="M402,436.02l1.01-12.99c9.15.54,17.85.89,26.99-.02l.99,16.01h-26v13h-25v13h-25v12h-22v-16h20v-12h25v-13h24.01Z"/>
  <path class="st0" d="M87,423.02l28,1,1,12h24v13h25v12h17v16h-20v-12h-24v-13h-25l.76-11.54-1.26-1.46h-25.5v-16Z"/>
  <path class="st0" d="M576,509.02c1.66,1.06,1.37,36.56-.05,37.95l-40.95-.95v-37h41Z"/>
  <path class="st0" d="M661,509.02v37l-41,1v-39c.73-.27,1.2,1,1.5,1h39.5Z"/>
  <path class="st0" d="M155,352.02v8.99s9.01.01,9.01.01l.93,9.56,12.06.44v15h13v15h13v20h-15v-11.01s-11.01.02-11.01.02l.02-11.02h-13.01s0-14.99,0-14.99h-12v-14h-14v-18h17Z"/>
  <path class="st0" d="M67,509.02v37l-39,1c.27-8.48-.34-17.06-.04-25.55.15-4.17,2.49-8.28.04-12.46h39Z"/>
  <path class="st0" d="M263,314.02v84c-5.46.68-10.58,1.98-16,0v-85l16,1Z"/>
  <path class="st0" d="M397,501.02v16h-54v-14.5c0-.3-1.27-.77-1-1.5h55Z"/>
  <path class="st0" d="M175,501.02h-52v16h52v-16Z"/>
  <path class="st0" d="M121,528.02h-43v15h43v-15Z"/>
  <path class="st0" d="M609,528.02v15l-22,1v-16h22Z"/>
</svg>