<?xml version="1.0" encoding="UTF-8"?>
<svg id="_Слой_1" data-name="Слой_1" xmlns="http://www.w3.org/2000/svg" version="1.1" viewBox="0 0 618 562">
  <!-- Generator: Adobe Illustrator 29.6.0, SVG Export Plug-In . SVG Version: 2.1.1 Build 207)  -->
  <defs>
    <style>
      .st0 {
        fill: #65e52a;
      }
    </style>
  </defs>
  <path class="st0" d="M143.99,172v12h106v-14h35v-19c7.6,2.63,16.81.22,24.5.2,8.97-.02,17.94.93,27.04.84,3.73-.04,8.4-2.91,11.46.46v18.5c.73.27,1.2-1,1.5-1h19c3.13,1.65.6,12.11,1.49,13.01,16.17.15,32.37-.2,48.55-.05,13.94.13,27.93,1.13,41.96,1.13,1.74,0,11.84-.9,12.86-1.23,2.96-.94,1.2-8.29,1.64-10.86h19.5l1.5-1.5v-19.5c.73-.27,1.2,1,1.5,1h20.5l.05,9.95,50.95.05v22l-23.55-1.05-8.4,1.1-.05,6.95h-30.5c-2.61,2.13-1.22,5.98-1.5,9h-31v8h-30v7h-30v7h-15v62h13.01v-6h26v-7h29l1-7h25v-7h28.5c2.8-1.26.86-8.37,1.5-9l22.96-.05,1.63-8.01,20.84.95.58,7.11h15v87c-5.14-.5-10.32-2.11-15.42-.11l-.58,7.11h-20v-22h16v-55h-10.01v8h-28v8h-29v7h-28.5c-1.96,0-1.82,5.49-.5,7h-24l-1,8h-19v16.5l-1.5,1.28c-.41.03-.75-.78-1-.78h-18.5v-10.01h-37.01s0-7,0-7h-65.99v-6h-54v-6h-59v-5c-7.5-.9-14.97-1.08-22.55-1.04-8.48.04-18.33,1.27-26.9,1.08-2.32-.05-4.96-1.53-7.55-1.04v-4.99h-48.01v-8h-39v-15h-20v-67h20v-18h25v-10h33v-10h19.5c.3,0,.77-1.27,1.5-1v19.5c.63.97,3.6,1.5,4.5,1.5h17.5ZM53.99,198v52.5c0,2.86,7.67.51,9.46.46,4.08-.13,28.09-.45,29.43,1.15l.11,5.9h60l1.5,6h57.5v6h57l1,7h61v7h47v-62h-37v-6h-60v-6.01l-59.5,1.01-2.06-.94-.43-5.07h-59v-4.01c-3.14-.1-6.33.18-9.49,0-5.04-.29-11.04-.98-16.02-.99-12.39-.02-24.52,1.44-36.94,1.06l-1.1-3.14-42.45.07h-.01Z"/>
  <path class="st0" d="M232.99,0v17h24v18h20v26h12.01v-9h40v9.01h12v-26h20v-18h22.5l1.5-1.5V0h74v17h23v18h21c.98,8.55-1.65,17.87.15,25.86l26.85,1.14v36h-22v29c-4.44.62-10.54-1.56-14,1.5v14.5h-14v14h-21v13h-73v-13h-21v-14h-14v-16h-16v-36h-12.01v-11h-28l-1.11,10.89-10.89.11v36h-14l-1,16h-14v14h-20.5c-3.13,1.65-.6,12.11-1.49,13.01-9.88.83-19.85-1.44-29.47.04l-43.54-.04v-13.01h-21.99v-14c-4.15-.57-9.82,1.5-13-1.5v-14.5h-14v-29h-22v-35.5l1.5-1.5h26.5v-26h20v-19c.73-.27,1.2,1,1.5,1h21.5V0h74,0ZM229.99,28h-69v17h-15c-.02,5.32-2.52,10.82,0,15.99-1.64,1.16-11.89-1.84-14,1.51v49.5h14c-.8.97,0,1.89,0,2.5v14.5h15v14h67.5c3.06-3.46.88-9.56,1.5-14h14v-17h17v-51h-16v-16h-15v-17ZM456.99,28h-67.5l-1.5,1.5v15.5h-15v16h-14.5l-1.5,1.5v49.5h16v17h15v14h69v-14h15v-17h14v-51h-14v-16h-15v-17Z"/>
  <path class="st0" d="M525.99,335v-8l7.86,1.15c.16,3.76.32,7.63.19,11.4-.37,10.53-1.97,3.5,3,6.89,2.22,1.52.34,29.16.89,33.99l6.06,1.58v33h8v37h7v32l8.89.11c2.26,4.07-.01,8.07.1,11.39.18,5.16,3.09,12.83-.5,17.5h-17.5v-8h-40l-1.1-6.89-110.9-.11c-.07,2.43.77,5.38-1.49,7.01h-20.5v6h-25v8h-19l-1.01,7.99-44.42.05-1.57-8.04h-20v-8h-24l-1-6h-22v-7h-111v7h-40v8h-19v-29h10v-33h7v-36h7v-33l6-1.5v-34.5l12.06-.44.94-10.56h135c.06,2.43-.76,5.38,1.5,7h34.5l.05,6.95c6.75.98,14.38,2.17,20.94.05v8h19.01v137l-11.08.53-.57-1.02c.82-2.73-.42-5.15-.4-7.96.18-26.03,1.31-52.87,1.08-79.01-.09-10.58.01-21.03-1.04-31.55h-9.01v-9.99h-25v-8h-34v-9h-122v33h-7.01l-1,35h-6.99v35l-6,1.5v30.5h-8.01v9h20.5l2.07-9.02h134.43c.07,2.45-.77,5.4,1.49,7.02h26.5v8h25c.11,2.15-.86,6.04,1.64,6.86l18.31.19,1.05,7.95h14v-8h18.5c2.26-1.62,1.44-4.57,1.5-7h24v-9.01l26.36.87c2.5-.82,1.53-4.71,1.64-6.86h136v9h23v-9.01h-9v-30.5l-6-1.5v-35.01c-2.73-.18-6.1.97-8-1.5v-33.5h-8v-33h-121.5c-2.61,2.13-1.22,5.98-1.5,9h-30v8h-26v10.01c-.7.71-8.64-1.41-10,1.49v118.5h-11v-138h20v-8l18.94.94.06-7.94h27v-7h144.04Z"/>
  <path class="st0" d="M63.99,356v31c-3.29.37-7.62-1.24-10,1.5v31.5h-10v42h-11v35.5c-2.14,3.32-9.74-.38-10.9,3.15-.46,1.39.95,8.99.95,11.9,0,4.89-1.84,9.15-.05,14.45h235v9l20.03.43.97,8.57,59.07-.44.95-8.56c2.68,1.68,18.67,1.31,19.88-.11l.11-8.89h236v-28h-10v-37h-11v-42h-11v-31.5c-2.13-2.61-5.98-1.22-9-1.5v-31h18v31c4.18,1.17,8.89,1.86,13,0v34h11v42h11v36h11v49h-253.5c-3.06,3.46-.88,9.56-1.5,14h-109v-14H0v-49c2.6-.44,9.89,1.34,10.86-1.64l-.86-34.35c1.43-1.03,10.15,1.7,12-1.51v-40.5h10v-34c3.88,1.3,10.63,2.24,14-.5v-30.5h18,0Z"/>
  <path class="st0" d="M439.99,368v26h28v-18h10v18h27v11h-27v33h32v10.99l-32,1.01v15l-10,1v-17h-69v17h-10v-16l-11.02-.58v-11.43h11.02v-31l-25-1v-11h25v-17h10v16h28v-24.5c3.18-3,8.85-.92,13-1.5h0ZM467.99,437v-31.5c-3.3-3.34-8.3-.44-12.48-.42-4.65.01-9.32-1.29-14.03-.72l-1.49,1.15v31.5h28ZM426.99,405h-28v32h28v-32Z"/>
  <path class="st0" d="M169.99,370v13h47v38h5v14h-23v-14h6v-27h-35v20h-45v-44h45ZM156.99,400v-15.5c-4.67-2.45-15.22-2.47-20,0v15c1.29,2.3,2.76.35,4.47.51,5.41.5,9.84,1.94,15.53,0h0Z"/>
  <path class="st0" d="M259.99,423v42h-100v-14h84.5l1.5-1.5v-26.5h14Z"/>
  <path class="st0" d="M59.99,283h-26v60h26v-60Z"/>
  <path class="st0" d="M553.99,200v26h-27v8h-27v9c-4.36-1.89-23.81,1.58-25.58-.99-.6-.71.58-1.26.58-1.51v-16.5h19.5c2.27-1.62,1.43-4.57,1.49-7.01.5-.53,12.2.39,14.57.09,1.91-.24.95-1.92,2.87-2.16,5.48-.69,12.27.81,17.93-.06l1.5-1.5.13-8.37h19.01c.74-.73-1.72-6.07,1.99-5h.01Z"/>
</svg>